<svg width="100" height="100" xmlns="http://www.w3.org/2000/svg"><title>Layer 1</title><g fill="#fff"><path d="M30 21.2v15.1h5.6V21.2L42.3-1h-5.7l-3.8 14.7L28.9-1H23c1.2 3.5 2.4 6.9 3.6 10.4 1.8 5.2 2.9 9.2 3.4 11.8zM49.8 36.8c2.5 0 4.5-1 5.9-2.9 1.1-1.4 1.6-3.6 1.6-6.6v-9.8c0-3-.5-5.2-1.6-6.6C54.3 9 52.3 8 49.8 8c-2.5 0-4.5 1-5.9 2.9-1.1 1.4-1.6 3.6-1.6 6.6v9.8c0 3 .5 5.2 1.6 6.6 1.5 1.9 3.4 2.9 5.9 2.9zm-2.4-20.2c0-2.6.8-3.9 2.4-3.9 1.6 0 2.4 1.3 2.4 3.9v11.7c0 2.6-.8 3.9-2.4 3.9-1.6 0-2.4-1.3-2.4-3.9V16.6zM65.2 36.8c1.8 0 3.8-1.1 5.8-3.4v3h5V8.5h-5.1v21.3c-1.1 1.6-2.2 2.4-3.2 2.4-.7 0-1.1-.4-1.2-1.2-.1-.2-.1-.8-.1-2V8.5h-5v22c0 2 .2 3.3.4 4.1.6 1.5 1.7 2.2 3.4 2.2zM78.7 64.7c-1.7 0-2.5 1.3-2.5 3.8V71h5v-2.5c0-2.6-.9-3.8-2.5-3.8zM60.1 64.7c-.8 0-1.7.4-2.5 1.2v16.8c.8.8 1.7 1.2 2.5 1.2 1.4 0 2.2-1.2 2.2-3.7V68.4c0-2.5-.7-3.7-2.2-3.7zM90.9 50.7c-1-4.4-4.6-7.6-8.9-8.1-10.3-1.1-20.6-1.2-31-1.1-10.3 0-20.7 0-31 1.1-4.3.5-7.9 3.7-8.9 8.1C9.7 57 9.6 63.8 9.6 70.2s0 13.3 1.4 19.5c1 4.4 4.6 7.6 8.9 8.1 10.2 1.1 20.6 1.1 31 1.1 10.3 0 20.7 0 31-1.1 4.3-.5 7.9-3.7 8.9-8.1 1.4-6.3 1.4-13.1 1.4-19.5.1-6.5.1-13.3-1.3-19.5zm-57.7 5.6h-6v31.8h-5.6V56.3h-5.9v-5.2h17.4v5.2h.1zm15.1 31.8h-5v-3c-2 2.3-3.9 3.4-5.7 3.4-1.6 0-2.7-.7-3.2-2.1-.3-.8-.4-2.1-.4-4.1V60.5h5v22.2c.1.8.5 1.2 1.2 1.2 1 0 2-.8 3.2-2.3V60.5h5v27.6h-.1zm19-8.3c0 2.5-.2 4.4-.5 5.6-.7 2.1-2 3.1-4 3.1-1.8 0-3.5-1-5.2-3.1v2.7h-5v-37h5v12.1c1.6-2 3.3-3 5.2-3 2 0 3.3 1 4 3.1.3 1.1.5 2.9.5 5.5v11zm18.9-4.6h-10v4.9c0 2.6.8 3.8 2.5 3.8 1.2 0 1.9-.7 2.2-2 0-.3.1-1.4.1-3.4h5.1v.7c0 1.6-.1 2.7-.1 3.2-.2 1.1-.6 2.1-1.2 3-1.4 2-3.4 3-6 3s-4.6-.9-6-2.8c-1.1-1.4-1.6-3.6-1.6-6.5v-9.7c0-2.9.5-5.1 1.5-6.5 1.4-1.9 3.4-2.8 6-2.8 2.5 0 4.5.9 5.9 2.8 1 1.4 1.5 3.5 1.5 6.5v5.8h.1z" class="st19"/></g></svg>